<?xml version="1.0" encoding="UTF-8" standalone="no"?>
<svg
   xmlns:dc="http://purl.org/dc/elements/1.1/"
   xmlns:cc="http://creativecommons.org/ns#"
   xmlns:rdf="http://www.w3.org/1999/02/22-rdf-syntax-ns#"
   xmlns:svg="http://www.w3.org/2000/svg"
   xmlns="http://www.w3.org/2000/svg"
   xmlns:sodipodi="http://sodipodi.sourceforge.net/DTD/sodipodi-0.dtd"
   xmlns:inkscape="http://www.inkscape.org/namespaces/inkscape"
   viewBox="0 0 256 256"
   x="0px"
   y="0px"
   version="1.1"
   id="svg16"
   sodipodi:docname="jarvis.svg"
   inkscape:version="0.92.2 (5c3e80d, 2017-08-06)"
   width="256"
   height="256"
   inkscape:export-filename="C:\Users\Patrik\Desktop\jarvis.png"
   inkscape:export-xdpi="96"
   inkscape:export-ydpi="96">
  <metadata
     id="metadata22">
    <rdf:RDF>
      <cc:Work
         rdf:about="">
        <dc:format>image/svg+xml</dc:format>
        <dc:type
           rdf:resource="http://purl.org/dc/dcmitype/StillImage" />
        <dc:title>Robots - Outline - 018 - Bot</dc:title>
      </cc:Work>
    </rdf:RDF>
  </metadata>
  <defs
     id="defs20" />
  <sodipodi:namedview
     pagecolor="#ffffff"
     bordercolor="#666666"
     borderopacity="1"
     objecttolerance="10"
     gridtolerance="10"
     guidetolerance="10"
     inkscape:pageopacity="0"
     inkscape:pageshadow="2"
     inkscape:window-width="1920"
     inkscape:window-height="1017"
     id="namedview18"
     showgrid="false"
     inkscape:zoom="2"
     inkscape:cx="-80.308202"
     inkscape:cy="163.68829"
     inkscape:window-x="-8"
     inkscape:window-y="-8"
     inkscape:window-maximized="1"
     inkscape:current-layer="svg16"
     showguides="true"
     inkscape:pagecheckerboard="true" />
  <title
     id="title2">Robots - Outline - 018 - Bot</title>
  <path
     inkscape:connector-curvature="0"
     id="path913"
     d="m 63.364464,120.52464 v 63.37411 c 0,4.13718 3.35385,7.49103 7.491029,7.49103 h 5.655727 c -3.19895,10.83865 -2.305918,22.47473 2.509495,32.69834 -4.096297,5.07176 -5.491276,11.80953 -3.745514,18.09083 0.943573,3.2365 3.93288,5.444 7.303753,5.39354 h 27.791716 c 1.4104,-0.004 2.69883,-0.80049 3.33351,-2.06003 0.28455,-0.52767 0.52267,-1.07908 0.71165,-1.64802 0.94047,-2.30589 1.4116,-4.77617 1.38584,-7.2663 0.002,-2.56092 -0.46805,-5.10023 -1.38584,-7.49103 -2.02981,-5.199 -6.08574,-9.34956 -11.23655,-11.49873 -0.93773,-0.39073 -1.90138,-0.71614 -2.88404,-0.97384 -2.134534,-3.68641 -3.246513,-7.87573 -3.221145,-12.13546 0.0026,-4.66553 1.383866,-9.22629 3.970245,-13.1093 h 66.9698 c 2.58638,3.88301 3.96763,8.44377 3.97024,13.1093 -0.007,4.29899 -1.17108,8.51685 -3.37096,12.21038 -0.99495,0.25731 -1.97108,0.5828 -2.9215,0.97383 -5.1508,2.14918 -9.20673,6.29973 -11.23654,11.49873 -0.90502,2.39319 -1.36208,4.93247 -1.34839,7.49103 -0.0437,2.36821 0.37621,4.72212 1.23602,6.9292 0.21754,0.68401 0.49324,1.34812 0.82401,1.98512 0.63468,1.25954 1.92311,2.05576 3.33351,2.06003 h 27.79172 c 3.33282,0.0225 6.27904,-2.16138 7.22884,-5.35608 1.75226,-6.29306 0.35725,-13.04495 -3.74551,-18.12829 4.92484,-10.21128 5.91168,-21.87991 2.77168,-32.77325 h 5.65573 c 4.13718,0 7.49103,-3.35385 7.49103,-7.49103 v -63.37411 c 6.00588,0.20151 10.87279,4.93865 11.23654,10.93691 v 32.62343 c -2.47088,2.91592 -3.80151,6.62836 -3.74552,10.44998 0.0383,1.26636 0.22687,2.52365 0.56183,3.74552 0.8552,3.31215 3.84551,5.62426 7.2663,5.61827 h 18.39048 c 3.39608,-0.007 6.36284,-2.29701 7.22884,-5.58082 0.29046,-1.22759 0.44122,-2.48406 0.44946,-3.74551 -0.005,-3.79986 -1.32879,-7.48021 -3.74551,-10.41253 l -0.18728,-32.69834 c 0,-33.447449 -27.49208,-39.739914 -37.45514,-40.938478 0,-1.423296 0,-2.921502 -0.3371,-4.419708 v 0 c -3.98537,-36.058105 -34.45638,-63.3468 -70.73404,-63.3468 -36.277666,0 -66.748677,27.288695 -70.734043,63.3468 v 0 c 0,1.535661 -0.262186,2.996412 -0.337097,4.419708"
     style="fill:#000000;fill-opacity:1;stroke:none;stroke-width:3.74551439;stroke-opacity:1" />
  <path
     inkscape:connector-curvature="0"
     style="fill:#0f87d5;fill-opacity:1;stroke-width:3.74551439"
     id="path909"
     d="m 114.07873,121.61084 c -3.74641,-4.63106 -5.78335,-10.41122 -5.76809,-16.3679 0.024,-1.87905 0.25012,-3.75008 0.67419,-5.580813 0.19731,-1.051591 0.46,-2.089885 0.78656,-3.108777 0.99273,-2.783929 2.44903,-5.379945 4.30734,-7.678305 v 0 c 4.96844,-6.217254 12.49191,-9.841189 20.45051,-9.850703 0.98556,-0.05468 1.9734,-0.05468 2.95896,0 20.49357,2.340272 30.38387,26.335388 17.49155,42.436678 v 0 c -10.49549,13.08203 -30.40553,13.08203 -40.90102,0 z" />
  <path
     inkscape:connector-curvature="0"
     id="path944"
     d="M 64.336736,120.52464 C 54.261302,119.32608 25.909318,113.03361 25.909318,79.586169 V 46.925283 c -2.481532,-2.90813 -3.872186,-6.590046 -3.93279,-10.41253 0.0095,-1.261377 0.160267,-2.517698 0.449462,-3.745515 0.833197,-3.232491 3.704749,-5.523623 7.041567,-5.618272 h 18.390477 c 3.478523,-0.0075 6.503697,2.382822 7.303754,5.768093 0.335298,1.221786 0.523919,2.479118 0.561827,3.745514 -0.01386,2.085203 -0.394215,4.151716 -1.123654,6.105189 -0.681474,1.518207 -1.577019,2.930865 -2.659316,4.194976 v 32.623431 c 0,0.412007 1.346823,9.288876 12.583367,10.936903"
     style="fill:#000000;fill-opacity:1;stroke-width:3.74551439"
     sodipodi:nodetypes="cscccccccccsc" />
  <path
     inkscape:connector-curvature="0"
     id="path901"
     d="M 63.177189,112.99616 V 98.014101"
     style="stroke-width:3.74551439" />
  <path
     inkscape:connector-curvature="0"
     style="fill:#eaeaea;fill-opacity:1;fill-rule:evenodd;stroke-width:3.74551439"
     id="path911"
     d="M 70.855493,116.47949 V 94.0064 90.260886 h 33.372537 l -0.18728,0.449461 c -0.42449,0.898924 -0.81153,1.797847 -1.16111,2.696771 l -0.18727,0.486917 c -0.38167,1.09369 -0.70672,2.206332 -0.97384,3.333508 0,0.299641 0,0.599282 -0.18727,0.898923 -0.19975,0.873941 -0.34957,1.747919 -0.44946,2.621864 v 0.97383 c -0.27088,2.31432 -0.27088,4.65234 0,6.96666 v 0.97383 c 0,0.29964 0.26218,1.76039 0.44946,2.62186 0,0.29964 0,0.59928 0.18727,0.89892 0.26751,1.12707 0.59254,2.23967 0.97384,3.33351 l 0.18727,0.48692 c 0.34957,0.92391 0.73662,1.82283 1.16111,2.69677 l 0.18728,0.44946 H 70.855493 Z" />
  <path
     inkscape:connector-curvature="0"
     style="fill:#eaeaea;fill-opacity:1;fill-rule:evenodd;stroke-width:3.74551439"
     id="path907"
     d="m 164.90536,119.73808 c 0.42449,-0.89892 0.81153,-1.79784 1.16111,-2.69677 l 0.18728,-0.48691 c 0.38167,-1.09369 0.70671,-2.20634 0.97383,-3.33351 0,-0.29964 0,-0.59928 0.18728,-0.89892 0.19975,-0.87394 0.34957,-1.74792 0.44946,-2.62186 v -0.97384 c 0.27087,-2.31431 0.27087,-4.65234 0,-6.96665 v -0.97384 c 0,-0.29964 -0.26219,-1.76039 -0.44946,-2.621859 0,-0.299641 0,-0.599282 -0.18728,-0.861468 -0.26713,-1.127175 -0.59216,-2.239818 -0.97383,-3.333508 l -0.18728,-0.486917 c -0.34957,-0.923906 -0.73662,-1.822829 -1.16111,-2.69677 l -0.18727,-0.524372 h 33.4849 V 94.0064 120.225 h -33.4849 z" />
  <path
     inkscape:connector-curvature="0"
     style="fill:#d0d0d0;fill-opacity:1;fill-rule:evenodd;stroke-width:3.74551439"
     id="path905"
     d="m 134.52924,30.332654 c 16.87729,0.01124 33.05332,6.752451 44.94617,18.727572 9.15727,9.191642 15.30889,20.94634 17.64138,33.709631 h -37.45515 l -0.78656,-0.786558 -1.16111,-1.16111 -1.53566,-1.348385 -1.27347,-1.048744 -1.64803,-1.16111 -1.34838,-0.898923 -1.72294,-1.086199 -1.42329,-0.749103 -1.91022,-0.786558 -1.46075,-0.561828 -2.09749,-0.599282 -1.42329,-0.374551 c -0.78656,0 -1.61057,-0.299641 -2.39713,-0.412007 l -1.19857,-0.03746 c -2.48907,-0.281288 -5.00195,-0.281288 -7.49102,0 l -1.23602,0.187276 c -0.82402,0 -1.61058,0.224731 -2.39713,0.412006 l -1.4233,0.374552 -2.06003,0.599282 -1.49821,0.561827 -1.87276,0.786558 -1.46075,0.749103 -1.72293,0.936379 -1.4233,0.936378 -1.57311,1.123655 -1.34839,1.086199 -1.46075,1.31093 -1.19856,1.23602 -0.74911,0.749103 H 71.904238 C 77.325757,52.463063 103.70449,30.359846 134.52924,30.332654 Z" />
  <path
     inkscape:connector-curvature="0"
     style="fill:#eeeeee;fill-opacity:1;fill-rule:evenodd;stroke-width:3.74551439"
     id="path903"
     d="M 47.858034,34.639995 29.729743,34.415264 c -0.166282,0.68704 -0.254238,1.390672 -0.262186,2.097489 -0.0176,2.429003 0.94045,4.763395 2.659315,6.47974 l 0.262186,0.262186 c 0.431069,0.452533 0.922642,0.843265 1.460751,1.161109 0.654518,0.413205 1.359464,0.740488 2.097488,0.973834 h 0.524372 c 0.725832,0.255444 1.480812,0.419085 2.247309,0.486917 0.585753,0.04944 1.174638,0.04944 1.760391,0 0.724709,-0.116486 1.430287,-0.330729 2.09749,-0.636738 1.109204,-0.473995 2.114538,-1.161184 2.958956,-2.022578 0.865668,-0.898286 1.552115,-1.953398 2.022578,-3.108777 0.423161,-1.151483 0.638745,-2.368925 0.636738,-3.595693 -0.05412,-0.63333 -0.166975,-1.260291 -0.337097,-1.872758 z" />
  <path
     inkscape:connector-curvature="0"
     style="fill:#d0d0d0;fill-opacity:1;fill-rule:evenodd;stroke-width:3.74551439"
     id="path899"
     d="M 63.177189,98.014101 C 48.494772,96.515895 44.449616,85.578992 44.449616,79.586169 V 52.393734 H 44.11252 c -0.814668,0.290652 -1.654873,0.503697 -2.509495,0.636737 -0.91312,0.188025 -1.840124,0.300765 -2.771682,0.337097 -0.89099,-0.0037 -1.78023,-0.07941 -2.659315,-0.224731 h -0.824013 c -0.581976,-0.118733 -1.157124,-0.268928 -1.722937,-0.449462 h -0.412007 v 26.892794 c 0,26.817881 21.124704,32.323791 29.964118,33.409991"
     sodipodi:nodetypes="csccccccccsc" />
  <path
     inkscape:connector-curvature="0"
     style="fill:#eeeeee;fill-opacity:1;fill-rule:evenodd;stroke-width:3.74551439"
     id="path897"
     d="m 107.41172,231.84133 c 0.58819,1.51724 0.89287,3.12957 0.89892,4.75681 0.009,1.17871 -0.15473,2.35237 -0.48692,3.48333 H 82.578954 c -0.327545,-1.14475 -0.491487,-2.33009 -0.486917,-3.52079 0.01161,-3.54299 1.47347,-6.92669 4.045156,-9.36378 0.611185,-0.63757 1.303843,-1.19171 2.060033,-1.64803 0.653465,-0.4113 1.34298,-0.76233 2.060033,-1.04874 h 0.337096 c 0.645097,-0.25095 1.308825,-0.45153 1.985123,-0.59929 h 0.262186 c 0.692152,-0.12997 1.3935,-0.20525 2.097488,-0.22473 h 0.187275 c 0.76004,-0.0685 1.524724,-0.0685 2.284764,0 1.03086,0.18016 2.036702,0.48175 2.996409,0.89893 3.21329,1.38681 5.73627,4.00425 7.00412,7.26629 z" />
  <path
     inkscape:connector-curvature="0"
     style="fill:#d0d0d0;fill-opacity:1;fill-rule:evenodd;stroke-width:3.74551439"
     id="path895"
     d="m 91.830375,216.25999 h -0.524372 -0.561828 c -1.020476,0.22211 -2.022263,0.5225 -2.996411,0.89893 l -1.123654,0.52437 c -0.599283,0.29964 -1.23602,0.52437 -1.835303,0.86147 -3.353404,-8.71428 -3.512637,-18.33452 -0.449461,-27.15498 h 8.090311 c -3.556684,7.86985 -3.7595,16.84781 -0.561827,24.87021 z" />
  <path
     inkscape:connector-curvature="0"
     style="fill:#eeeeee;fill-opacity:1;fill-rule:evenodd;stroke-width:3.74551439"
     id="path893"
     d="m 186.47953,240.08147 h -25.24477 c -0.31953,-1.13287 -0.47096,-2.30649 -0.44946,-3.48333 -0.001,-1.61233 0.29054,-3.21148 0.86146,-4.71935 1.22929,-3.35164 3.77231,-6.05699 7.04157,-7.49103 0.96019,-0.41586 1.96588,-0.71757 2.99641,-0.89892 3.20165,-0.51471 6.48082,0.16517 9.21397,1.91021 0.81496,0.49598 1.55844,1.10084 2.20985,1.79785 2.43859,2.44147 3.78902,5.76352 3.74552,9.21396 0.0703,1.23565 -0.0561,2.47463 -0.37455,3.67061 z" />
  <path
     inkscape:connector-curvature="0"
     style="fill:#d0d0d0;fill-opacity:1;fill-rule:evenodd;stroke-width:3.74551439"
     id="path891"
     d="m 186.96644,204.49908 c -0.001,4.90767 -0.91565,9.77227 -2.69677,14.34532 -0.59928,-0.3371 -1.19856,-0.59928 -1.8353,-0.86147 l -1.12365,-0.52437 c -0.98637,-0.37811 -2.00073,-0.67869 -3.03387,-0.89893 h -0.52437 -0.56183 c 3.29519,-8.10484 3.10552,-17.20929 -0.52437,-25.16985 h 8.05285 c 1.48513,4.21123 2.24501,8.6439 2.24731,13.1093 z" />
  <path
     inkscape:connector-curvature="0"
     style="fill:#d0d0d0;fill-opacity:1;fill-rule:evenodd;stroke-width:3.74551439"
     id="path889"
     d="M 198.20299,183.89875 H 70.855493 v -56.18272 h 38.541347 l 0.78656,0.78656 1.16111,1.16111 1.53566,1.34838 1.27347,1.04875 1.64803,1.16111 1.34838,0.89892 1.76039,0.97383 1.4233,0.74911 1.91021,0.78656 1.46075,0.56182 2.09749,0.59928 1.4233,0.37456 c 0.78655,0 1.61057,0.29964 2.39713,0.412 l 1.23602,0.18728 c 2.48907,0.28129 5.00195,0.28129 7.49102,0 l 1.23602,-0.18728 c 0.82402,0 1.61058,-0.22473 2.39713,-0.412 l 1.4233,-0.37456 2.06003,-0.59928 1.49821,-0.56182 1.87276,-0.78656 1.46075,-0.74911 1.72293,-0.93637 1.4233,-0.93638 1.57311,-1.12366 1.34839,-1.0862 1.46075,-1.31093 1.19856,-1.23602 0.74911,-0.7491 h 38.42898 z" />
  <path
     inkscape:connector-curvature="0"
     style="fill:#d0d0d0;fill-opacity:1;fill-rule:evenodd;stroke-width:3.74551439"
     id="path887"
     d="M 205.69402,112.92125 V 97.93919 c 8.80195,1.0862 29.96411,6.47974 29.96411,33.44744 v 27.19244 h -0.44946 l -1.27348,-0.3371 h -0.63673 l -1.87276,-0.56182 v 0 h -1.23602 c -0.90352,0.002 -1.80538,0.0771 -2.69677,0.22473 -0.89344,0.14083 -1.77138,0.36631 -2.62186,0.67419 h -0.29964 v -27.11752 c -0.14982,-5.99283 -4.19498,-16.92973 -18.87739,-18.5403 z" />
  <path
     inkscape:connector-curvature="0"
     style="fill:#eeeeee;fill-opacity:1;fill-rule:evenodd;stroke-width:3.74551439"
     id="path4"
     d="m 239.40365,176.40772 h -18.39048 c -0.52946,-1.69938 -0.43651,-3.53172 0.26219,-5.16881 0.47652,-1.18332 1.17586,-2.26413 2.06003,-3.18369 0.876,-0.8848 1.9203,-1.58525 3.07132,-2.06003 0.66671,-0.30713 1.37247,-0.52156 2.09749,-0.63674 2.28802,-0.35807 4.62848,0.12061 6.5921,1.34839 0.51128,0.30938 0.97759,0.68734 1.38584,1.12365 l 0.29965,0.29964 c 1.68667,1.70414 2.62942,4.00714 2.62186,6.40483 0.0618,0.62273 0.0618,1.25003 0,1.87276 z" />
  <path
     inkscape:connector-curvature="0"
     id="path6"
     d="m 149.09929,93.519483 a 18.727573,18.727573 0 1 0 4.15752,11.723457 18.727573,18.727573 0 0 0 -4.15752,-11.723457 z m -5.80555,18.727577 a 11.236544,11.236544 0 0 1 -17.49155,0 11.011813,11.011813 0 0 1 -2.50949,-7.00412 11.236544,11.236544 0 0 1 19.96359,-7.041564 11.011813,11.011813 0 0 1 2.50949,7.041564 11.236544,11.236544 0 0 1 -2.47204,7.00412 z"
     style="fill:#71c1f4;fill-opacity:1;stroke-width:3.74551439" />
  <path
     inkscape:connector-curvature="0"
     id="path8"
     d="M 108.31064,138.95257 H 82.092037 a 3.745515,3.745515 0 0 0 0,7.49103 h 26.218603 a 3.745515,3.745515 0 0 0 0,-7.49103 z"
     style="stroke-width:3.74551439" />
  <path
     inkscape:connector-curvature="0"
     id="path10"
     d="M 108.31064,153.93463 H 82.092037 a 3.745515,3.745515 0 0 0 0,7.49103 h 26.218603 a 3.745515,3.745515 0 0 0 0,-7.49103 z"
     style="stroke-width:3.74551439" />
  <path
     inkscape:connector-curvature="0"
     id="path12"
     d="M 108.31064,168.91669 H 82.092037 a 3.745515,3.745515 0 0 0 0,7.49103 h 26.218603 a 3.745515,3.745515 0 0 0 0,-7.49103 z"
     style="stroke-width:3.74551439" />
  <path
     style="fill:#c6c6c6;fill-opacity:1;stroke:#000000;stroke-width:6.3673749;stroke-linecap:butt;stroke-linejoin:miter;stroke-miterlimit:4;stroke-dasharray:none;stroke-opacity:1"
     d="m 13.482638,28.992921 c 17.709959,-0.06143 34.559327,0.08053 51.183404,0.119107 1.963908,0.0037 3.414535,-2.351696 4.166091,-4.166098 0.986943,-2.38271 0.86791,-2.973714 -0.119033,-5.356423 -0.76229,-1.840321 -2.233652,-4.234117 -4.225603,-4.225615 -17.841777,0.07641 -33.877268,-0.0427 -50.885828,-0.119107 -1.949867,-0.0075 -3.390145,2.334879 -4.1363343,4.136359 -1.1349856,2.740106 -1.1707358,3.846231 0.1190325,6.516933 0.7215068,1.494048 2.2391528,3.100574 3.8982708,3.094844 z"
     id="path1379"
     inkscape:connector-curvature="0"
     sodipodi:nodetypes="sssssssss" />
</svg>
